<svg preserveAspectRatio="none" width="100%" height="100%" overflow="visible" style="display: block;" viewBox="0 0 29.7197 29.2502" fill="none" xmlns="http://www.w3.org/2000/svg">
<g id="Union">
<path d="M29.3168 0.402926V28.8473C24.5571 28.8473 20.193 27.1548 16.7924 24.3394C13.4 26.5995 7.96127 28.7492 1.38905 27.5543C3.19931 26.7784 10.1808 22.124 9.92225 12.815C9.95298 12.8573 9.98761 12.8967 10.0209 12.9371C9.7873 11.7256 9.66346 10.4746 9.66346 9.19492V0.402926H29.3168Z" fill="var(--fill-0, #278EFF)"/>
<path d="M29.3168 0.402926H29.7197V0H29.3168V0.402926ZM29.3168 28.8473V29.2502H29.7197V28.8473H29.3168ZM16.7924 24.3394L17.0493 24.0291L16.8184 23.8379L16.569 24.0041L16.7924 24.3394ZM1.38905 27.5543L1.23032 27.184L0 27.7113L1.31697 27.9507L1.38905 27.5543ZM9.92225 12.815L10.2481 12.578L9.48338 11.5265L9.51948 12.8262L9.92225 12.815ZM10.0209 12.9371L9.70994 13.1934L10.4165 12.8608L10.0209 12.9371ZM9.66346 9.19492H9.26054V9.19492H9.66346ZM9.66346 0.402926V0H9.26054V0.402926H9.66346ZM29.3168 0.402926H28.9139V28.8473H29.3168H29.7197V0.402926H29.3168ZM29.3168 28.8473V28.4443C24.6544 28.4443 20.3803 26.7869 17.0493 24.0291L16.7924 24.3394L16.5354 24.6498C20.0056 27.5228 24.4599 29.2502 29.3168 29.2502V28.8473ZM16.7924 24.3394L16.569 24.0041C13.239 26.2227 7.90494 28.3295 1.46113 27.1579L1.38905 27.5543L1.31697 27.9507C8.01761 29.169 13.5611 26.9764 17.0158 24.6748L16.7924 24.3394ZM1.38905 27.5543L1.54778 27.9246C2.51462 27.5102 4.76588 26.1116 6.7461 23.6363C8.73423 21.1511 10.4574 17.5695 10.325 12.8038L9.92225 12.815L9.51948 12.8262C9.64568 17.3695 8.00738 20.7697 6.11683 23.1329C4.21838 25.506 2.07374 26.8225 1.23032 27.184L1.38905 27.5543ZM9.92225 12.815L9.59639 13.052C9.63668 13.1074 9.6874 13.166 9.70994 13.1934L10.0209 12.9371L10.3318 12.6809C10.2878 12.6275 10.2693 12.6072 10.2481 12.578L9.92225 12.815ZM10.0209 12.9371L10.4165 12.8608C10.1877 11.674 10.0664 10.4486 10.0664 9.19492H9.66346H9.26054C9.26054 10.5007 9.38691 11.7772 9.62524 13.0134L10.0209 12.9371ZM9.66346 9.19492H10.0664V0.402926H9.66346H9.26054V9.19492H9.66346ZM9.66346 0.402926V0.805851H29.3168V0.402926V0H9.66346V0.402926Z" fill="var(--stroke-0, #278EFF)"/>
</g>
</svg>
